<svg width="40" height="60" viewBox="0 0 40 60" fill="none" xmlns="http://www.w3.org/2000/svg">
<path d="M28.8266 31.9899L16.3266 50.7398C15.9743 51.2682 15.4966 51.565 14.9984 51.565C14.5003 51.565 14.0225 51.2682 13.6703 50.7398C13.3181 50.2115 13.1202 49.4949 13.1202 48.7477C13.1202 48.0004 13.3181 47.2838 13.6703 46.7555L24.8437 30L13.6734 13.2398C13.499 12.9782 13.3607 12.6676 13.2663 12.3258C13.1719 11.984 13.1233 11.6176 13.1233 11.2477C13.1233 10.8777 13.1719 10.5113 13.2663 10.1695C13.3607 9.82768 13.499 9.51709 13.6734 9.25547C13.8478 8.99386 14.0549 8.78633 14.2828 8.64474C14.5107 8.50316 14.7549 8.43028 15.0016 8.43028C15.2482 8.43028 15.4925 8.50316 15.7203 8.64474C15.9482 8.78633 16.1553 8.99386 16.3297 9.25547L28.8297 28.0055C29.0043 28.2671 29.1427 28.5778 29.2371 28.9198C29.3315 29.2619 29.3799 29.6285 29.3796 29.9986C29.3793 30.3688 29.3303 30.7352 29.2354 31.0769C29.1405 31.4186 29.0016 31.7289 28.8266 31.9899Z" fill="#D9D9D9"/>
</svg>
